<?xml version="1.0" standalone="no"?><!DOCTYPE svg PUBLIC "-//W3C//DTD SVG 1.1//EN" "http://www.w3.org/Graphics/SVG/1.1/DTD/svg11.dtd"><svg t="1734081078241" class="icon" viewBox="0 0 1024 1024" version="1.1" xmlns="http://www.w3.org/2000/svg" p-id="2325" xmlns:xlink="http://www.w3.org/1999/xlink" width="200" height="200"><path d="M500.738817 865.647506 500.738817 824.337984 500.738817 865.647506Z" fill="#040000" p-id="2326"></path><path d="M542.525088 518.634593l457.97127-457.983391c10.100622-10.100622 10.100622-26.477769 0-36.578391-10.100622-10.100622-26.452518-10.100622-36.553139 0L505.953768 482.062263 47.975427 24.073821c-10.100622-10.07638-26.477769-10.100622-36.553139 0-10.100622 10.100622-10.100622 26.477769-0.024241 36.578391l457.983391 457.983391L11.398046 976.617984c-10.07638 10.102642-10.07638 26.478779 0.024241 36.579401 10.07638 10.07739 26.452518 10.07739 36.553139 0l457.978341-457.989452L963.94322 1013.197385c10.07739 10.07739 26.452518 10.07739 36.553139 0 10.100622-10.100622 10.100622-26.476759 0-36.579401L542.525088 518.634593z" p-id="2327"></path></svg>